<svg width="83" height="74" fill="none" xmlns="http://www.w3.org/2000/svg"><path d="M40.665 35.555v-21.94L24.116 0v19.127C5.479 24.314 9.03 29.326 11.889 31.469L0 37.185l19.378 9.324 19.632-9.324-19.632-9.317-7.093 3.412c-3.044-4.118 6.225-9.043 11.831-11.543v2.48l16.549 13.338Z" fill="#BF0A44"/><path d="m59.895 51.786-16.55-13.34v21.938l7.237 5.955c-1.28 5.624-8.51 1.4-13.723-2.537l4.159-3.418V38.446l-16.55 13.34V74l11.61-9.55c12.902 13.244 14.454 4.852 14.624 1.984L59.895 74V51.786Z" fill="#0063B0"/><path d="M65.708 28.98c4.4-20.556-3.473-17.3-6.167-15.685V.001l-16.55 13.615v21.939l16.55-13.343v-8.74c5.84-2.21 5.984 8.664 5.571 15.225l-1.742-.828-19.378 9.317L63.37 46.51 83 37.186 65.708 28.98Z" fill="#249795"/></svg>